<?xml version="1.0" encoding="utf-8"?>
<!-- Generator: Adobe Illustrator 24.0.1, SVG Export Plug-In . SVG Version: 6.00 Build 0)  -->
<svg version="1.1" id="Capa_1" xmlns="http://www.w3.org/2000/svg" xmlns:xlink="http://www.w3.org/1999/xlink" x="0px" y="0px"
	 viewBox="0 0 8192 1599.2" style="enable-background:new 0 0 8192 1599.2;" xml:space="preserve">
<style type="text/css">
	.st0{fill:#AFBFAC;}
	.st1{fill:#E8DBD1;}
	.st2{fill:url(#SVGID_1_);}
	.st3{fill:none;stroke:#95591E;stroke-width:8.4471;stroke-linecap:round;stroke-miterlimit:10;stroke-dasharray:8.4471,29.5647;}
	.st4{fill:none;stroke:#95591E;stroke-width:8.4471;stroke-linecap:round;stroke-miterlimit:10;stroke-dasharray:8.4471,29.5648;}
</style>
<g>
	<g>
		<path class="st0" d="M5729.8,388c-1443.5,580.2-3103.6,667.4-4559.1,72.2C853.6,330.5,420.6,208.8,0,140.3v1350.1
			C1571,945.7,4013.6,1267,4013.6,1267c2546.5,552,4048-86.5,4178.4-152.6V357.3C7669.6,141.6,6849.3-62,5729.8,388z"/>
	</g>
	<path class="st1" d="M7802.7,127.2L7326,74.6l-224.3-2.5l-433.4,30.1l-343.7,65.3l-323.4,94.4L5460,477.5l-546.1,171.3l-421,106.4
		l-832.5,66.1L2865,832.7l-748.4-115.6l-831.7-264L489.6,194.5L1.2,105.3v227.3c286.9,83.2,616.6,224.3,948.5,461.9
		c1268.9,908.4,2739,728.2,3494.5,381.8c1484-680.5,3431-335.5,3747.8-219.3V218.4L7802.7,127.2z"/>
	<linearGradient id="SVGID_1_" gradientUnits="userSpaceOnUse" x1="1.193" y1="470.3762" x2="8191.999" y2="470.3762">
		<stop  offset="0" style="stop-color:#95591E"/>
		<stop  offset="1" style="stop-color:#F0C982"/>
	</linearGradient>
	<path class="st2" d="M8192,203.2C7650.1,43.1,7072.9-143.1,5748.5,344.1c-1421.8,523.1-3016.1,662.4-4431.9,65
		C963.4,260,462.5,121.2,1.2,60.7v78.4c422,68.3,857.3,190.7,1175.6,321.1c1452.8,595.2,2928.9,588.1,4385.6,48.9
		C6879.8,21.3,7670.9,354.7,8192,571.4V203.2z"/>
	<path class="st3" d="M8184.9,155.5c-1594.7,1587.9-4237.1,1272.6-5215.6,973.9C1990.7,830.7,1117.3,563.8,158.3,657
		c-52,5-103.4,10.6-154.3,16.5"/>
	<path class="st4" d="M4,851.5c88.8,42.4,178.2,88.8,267.7,139.6c1600.8,908.4,3345.4,579.6,4323.9,280.9s2215.6-844.3,3583-534.3"
		/>
</g>
</svg>
